<?xml version="1.0" standalone="no"?><svg xmlns="http://www.w3.org/2000/svg" viewBox="0 0 1440 320"><path fill="#e9e9e9" fill-opacity="1" d="M0,160L30,160C60,160,120,160,180,154.7C240,149,300,139,360,122.7C420,107,480,85,540,80C600,75,660,85,720,106.7C780,128,840,160,900,160C960,160,1020,128,1080,133.3C1140,139,1200,181,1260,186.7C1320,192,1380,160,1410,144L1440,128L1440,320L1410,320C1380,320,1320,320,1260,320C1200,320,1140,320,1080,320C1020,320,960,320,900,320C840,320,780,320,720,320C660,320,600,320,540,320C480,320,420,320,360,320C300,320,240,320,180,320C120,320,60,320,30,320L0,320Z"></path></svg>